<svg version="1.2" xmlns="http://www.w3.org/2000/svg" viewBox="0 0 500 262" width="500" height="262">
	<title>1149278_5236-ai</title>
	<style>
		.s0 { fill: #006a4a } 
	</style>
	<g id="Object">
		<g id="&lt;Group&gt;">
			<g id="&lt;Group&gt;">
				<path id="&lt;Path&gt;" class="s0" d="m456.7 214.7c3.7-5.9 5.8-12.9 5.8-20.4 0-21.2-17.2-38.4-38.4-38.4-10 0-19.1 3.8-25.9 10-9.6-15.6-26.8-26-46.4-26-10.9 0-21.1 3.3-29.6 8.8-5.1-46.3-44.3-82.4-92-82.4-33.2 0-62.4 17.6-78.7 43.9-7.3-3.7-15.5-5.7-24.2-5.7-30.1 0-54.4 24.3-54.4 54.3 0 9.2 2.2 17.8 6.2 25.4q-3.1-0.3-6.2-0.3c-40.3 0-72.9 32.6-72.9 72.8 0 40.2 32.6 72.8 72.9 72.8 40.2 0 338.8 0 370.9 0 32.1 0 58.2-26 58.2-58.1 0-27.7-19.4-50.9-45.3-56.7z"/>
			</g>
		</g>
	</g>
</svg>