<svg width="231" height="340" viewBox="0 0 231 340" fill="none" xmlns="http://www.w3.org/2000/svg">
<path d="M69.917 198.122C69.917 198.122 70.888 63.651 207.145 0L69.917 198.122Z" fill="#00311F"/>
<path d="M69.917 198.122C69.917 198.122 180.809 171.091 207.145 0L69.917 198.122Z" fill="#005940"/>
<path d="M82.6091 221.709C82.6091 221.709 120.672 131.247 230.218 126.027L82.6091 221.709Z" fill="#00311F"/>
<path d="M82.6091 221.709C82.6091 221.709 164.872 234.174 230.218 126.027L82.6091 221.709Z" fill="#005940"/>
<path d="M80.283 293.322C80.283 293.322 126.93 257.857 185.165 287.795L80.283 293.322Z" fill="#00311F"/>
<path d="M80.283 293.322C80.283 293.322 119.132 324.282 185.165 287.795L80.283 293.322Z" fill="#005940"/>
<path d="M42.175 115.109C42.175 115.109 24.674 59.1861 72.621 14.5911L42.175 115.109Z" fill="#00311F"/>
<path d="M42.175 115.109C42.175 115.109 84.4951 89.0931 72.6211 14.5911L42.175 115.109Z" fill="#005940"/>
<path d="M14.5461 339.38C26.3871 293.543 46.0991 249.79 69.7621 208.281C94.2961 165.117 122.481 123.924 149.853 82.3079C120.605 122.635 90.5901 162.44 63.8911 204.771C37.4881 246.528 14.8221 291.369 0.518066 339.38H14.5461Z" fill="#005940"/>
<path d="M14.521 339.38C25.866 308.466 39.726 278.368 59.865 252.31C80.924 224.553 109.317 202.824 139.593 184.903C123.898 192.919 108.583 201.819 94.183 212.196C79.763 222.528 66.387 234.495 54.594 247.953C30.919 274.786 14.05 306.865 0 339.38H14.521Z" fill="#005940"/>
<path d="M19.7629 316.99L14.2209 304.484C31.6999 298.276 49.1599 295.659 66.6439 293.593C84.1239 291.7 101.626 290.765 119.074 290.917C101.767 293.039 84.6449 296.238 67.8349 300.328C51.1389 304.52 34.3499 309.498 19.7629 316.99Z" fill="#005940"/>
<path d="M31.953 290.125L18.284 290.651C17.928 252.133 20.942 213.602 27.695 175.844C34.411 138.068 44.777 101.145 57.518 65.21C46.945 101.846 38.856 139.166 34.462 176.843C30.029 214.514 29.351 252.463 31.953 290.125Z" fill="#005940"/>
</svg>
