<svg width="946" height="911" viewBox="0 0 946 911" fill="none" xmlns="http://www.w3.org/2000/svg">
<g filter="url(#filter0_d_2_700)">
<path d="M743.749 426.954L616.768 582.166C577.538 624.329 603.325 302.785 609.924 169.083H571.549C567.516 408.989 552.362 648.65 590.004 886.478H653.799C653.799 886.478 586.093 675.659 619.824 618.097L743.749 440.642V426.954Z" fill="#914936"/>
<mask id="mask0_2_700" style="mask-type:luminance" maskUnits="userSpaceOnUse" x="219" y="0" width="723" height="528">
<path d="M856.259 222.759C851.81 141.267 814.132 77.618 768.314 77.618C752.401 77.618 737.479 85.3419 724.585 98.7732C717.864 43.1781 668.514 0 608.592 0C563.08 0 523.666 24.9316 504.393 61.2902C493.125 54.7029 480.598 51.0121 467.374 51.0121C427.887 51.0121 394.461 83.7532 383.12 128.923C327.61 144.42 266.736 181.206 229.228 258.947C179.622 361.753 323.137 505.085 388.07 505.085C409.811 505.085 430.16 499.83 447.624 490.725C467.13 514.056 490.803 527.744 516.345 527.744C549.037 527.744 578.687 505.33 600.416 468.934C616.622 504.878 640.955 527.744 668.184 527.744C691.099 527.744 711.973 511.538 727.677 484.969C749.48 502.384 778.971 511.428 809.524 500.123C939.816 451.935 1004.63 236.997 856.259 222.759Z" fill="white"/>
</mask>
<g mask="url(#mask0_2_700)">
<path d="M962.389 183.749C962.389 313.051 923.158 442.109 706.962 442.109C490.888 442.109 179.609 313.051 179.609 183.749C179.609 54.5685 354.864 -50.291 571.06 -50.291C787.134 -50.291 962.389 54.5685 962.389 183.749Z" fill="#67A336"/>
<path d="M218.962 286.286C218.962 346.537 329.444 442.475 404.85 442.475C480.133 442.475 541.24 393.59 541.24 333.216C541.24 272.842 480.133 223.957 404.85 223.957C329.444 223.957 218.962 225.912 218.962 286.286Z" fill="#67A336"/>
<path d="M614.813 407.033C614.813 445.531 552.484 480.973 518.264 480.973C483.922 480.973 456.179 449.686 456.179 411.189C456.179 372.813 483.922 341.527 518.264 341.527C552.484 341.527 614.813 368.536 614.813 407.033Z" fill="#67A336"/>
<path d="M595.503 400.678C595.503 442.597 627.401 476.695 666.632 476.695C705.862 476.695 737.76 442.597 737.76 400.678C737.76 358.637 705.862 324.661 666.632 324.661C627.401 324.661 595.503 358.637 595.503 400.678Z" fill="#67A336"/>
</g>
<path d="M342.643 119.097C342.643 119.097 353.153 123.497 362.564 119.831C371.974 116.164 376.618 105.776 376.618 105.776C376.618 105.776 366.108 101.376 356.697 105.043C347.409 108.709 342.643 119.097 342.643 119.097Z" fill="#6A9E3E"/>
<path d="M736.049 48.4578C736.049 48.4578 741.06 58.7237 750.47 62.1457C760.003 65.5677 770.391 60.8014 770.391 60.8014C770.391 60.8014 765.38 50.5354 755.848 47.2356C746.437 43.8136 736.049 48.4578 736.049 48.4578Z" fill="#6A9E3E"/>
<path d="M569.838 891C569.838 891 566.783 826.838 528.041 774.652C528.041 774.652 580.349 808.628 588.659 860.324C588.659 860.324 611.513 794.207 577.171 729.433C577.171 729.433 621.413 769.642 616.157 850.058C626.179 815.227 644.511 782.596 668.709 751.554C654.532 791.396 644.022 829.282 640.356 863.257C653.799 837.104 674.698 820.116 701.34 810.217C675.798 836.982 657.099 863.869 655.021 891H569.838Z" fill="#01803E"/>
<path d="M530.797 890.567C530.797 890.567 527.742 826.404 489 774.219C489 774.219 541.308 808.195 549.618 859.891C549.618 859.891 572.472 793.773 538.13 729C538.13 729 582.371 769.208 577.116 849.625C587.138 814.794 605.592 782.163 629.668 751.121C615.491 790.962 604.981 828.849 601.315 862.824C614.758 836.67 635.657 819.683 662.299 809.783C636.757 836.548 618.058 863.435 615.98 890.567H530.797Z" fill="#67A336"/>
<path d="M440.22 831.334L522.237 736.379C507.557 719.558 490.483 705.631 471.814 694.779L439.103 777.074L457.294 687.002C452.188 684.711 447.028 682.601 441.816 680.671L437.667 701.471L438.146 679.405C420.115 673.256 401.127 670 381.5 670C365.703 670 350.544 672.17 335.864 676.15L336.183 701.471L331.556 677.416C326.237 678.983 320.971 680.792 315.759 682.842L334.907 777.074L300.121 689.895C279.059 700.567 259.911 715.398 243.635 733.304L297.09 795.161L233.104 745.784C201.988 785.575 183 837.665 183 895H580C580 842.548 564.044 794.437 537.396 756.093L440.22 831.334Z" fill="#025726"/>
<path d="M332.395 704.325C326.192 704.325 320.192 704.932 314.327 706.01C291.674 667.649 249.942 641.896 202.143 641.896C130.14 641.896 71.8229 700.212 71.8229 772.148C71.8229 778.957 72.3622 785.699 73.3735 792.238C68.9913 791.092 64.3394 790.486 59.5527 790.486C28.8774 790.486 4 815.363 4 846.038C4 876.714 28.8774 901.591 59.5527 901.591C83.284 901.591 166.883 902.4 202.143 902.4C228.166 902.4 310.012 901.591 332.395 901.591C386.869 901.591 431.028 857.432 431.028 802.958C431.028 748.484 386.869 704.325 332.395 704.325Z" fill="#01803E"/>
<mask id="mask1_2_700" style="mask-type:luminance" maskUnits="userSpaceOnUse" x="34" y="697" width="32" height="67">
<path d="M34.6349 728.144C31.7292 746.219 44.5387 763.309 44.5387 763.309C44.5387 763.309 62.0674 751.1 64.9732 733.025C67.8789 714.95 55.0627 697.859 55.0627 697.859C55.0627 697.859 37.5406 710.069 34.6349 728.144Z" fill="white"/>
</mask>
<g mask="url(#mask1_2_700)">
<path d="M34.6082 728.124C31.7092 746.192 44.5187 763.316 44.5187 763.316C44.5187 763.316 62.0474 751.113 64.9464 733.045C67.8454 714.977 55.0359 697.853 55.0359 697.853C55.0359 697.853 37.5746 710.056 34.6082 728.124Z" fill="#6A9E3E"/>
</g>
<mask id="mask2_2_700" style="mask-type:luminance" maskUnits="userSpaceOnUse" x="299" y="646" width="33" height="65">
<path d="M301.119 674.762C296.38 692.446 307.383 710.757 307.383 710.757C307.383 710.757 326.064 700.401 330.797 682.717C335.536 665.033 324.541 646.723 324.541 646.723C324.541 646.723 305.859 657.078 301.119 674.762Z" fill="white"/>
</mask>
<g mask="url(#mask2_2_700)">
<path d="M301.113 674.728C296.393 692.459 307.383 710.73 307.383 710.73C307.383 710.73 326.057 700.414 330.777 682.683C335.563 665.02 324.507 646.749 324.507 646.749C324.507 646.749 305.832 657.064 301.113 674.728Z" fill="#01803E"/>
</g>
<mask id="mask3_2_700" style="mask-type:luminance" maskUnits="userSpaceOnUse" x="311" y="684" width="42" height="27">
<path d="M326.705 688.347C315.372 694.644 311.461 709.253 311.461 709.253C311.461 709.253 325.936 713.662 337.269 707.365C348.602 701.075 352.506 686.459 352.506 686.459C352.506 686.459 338.038 682.05 326.705 688.347Z" fill="white"/>
</mask>
<g mask="url(#mask3_2_700)">
<path d="M326.732 688.347C315.338 694.617 311.495 709.246 311.495 709.246C311.495 709.246 325.923 713.696 337.249 707.359C348.575 701.089 352.485 686.459 352.485 686.459C352.485 686.459 338.058 682.077 326.732 688.347Z" fill="#01803E"/>
</g>
</g>
<defs>
<filter id="filter0_d_2_700" x="0" y="0" width="945.437" height="910.4" filterUnits="userSpaceOnUse" color-interpolation-filters="sRGB">
<feFlood flood-opacity="0" result="BackgroundImageFix"/>
<feColorMatrix in="SourceAlpha" type="matrix" values="0 0 0 0 0 0 0 0 0 0 0 0 0 0 0 0 0 0 127 0" result="hardAlpha"/>
<feOffset dy="4"/>
<feGaussianBlur stdDeviation="2"/>
<feComposite in2="hardAlpha" operator="out"/>
<feColorMatrix type="matrix" values="0 0 0 0 0 0 0 0 0 0 0 0 0 0 0 0 0 0 0.25 0"/>
<feBlend mode="normal" in2="BackgroundImageFix" result="effect1_dropShadow_2_700"/>
<feBlend mode="normal" in="SourceGraphic" in2="effect1_dropShadow_2_700" result="shape"/>
</filter>
</defs>
</svg>
