<svg xmlns="http://www.w3.org/2000/svg" width="24" height="24" fill="none"><path fill="#1C2436" d="M12 4.36c2.075 0 2.334.008 3.149.047.813.038 1.367.165 1.854.355.505.194.93.457 1.354.88.389.383.69.844.88 1.354.19.487.318 1.041.356 1.855.036.814.046 1.073.046 3.149 0 2.075-.008 2.334-.046 3.149-.038.813-.166 1.367-.355 1.854a3.73 3.73 0 0 1-.88 1.354 3.754 3.754 0 0 1-1.355.88c-.486.19-1.04.318-1.854.356-.815.036-1.073.046-3.149.046s-2.334-.008-3.149-.046c-.813-.038-1.367-.167-1.855-.355a3.735 3.735 0 0 1-1.353-.881 3.746 3.746 0 0 1-.88-1.354c-.19-.486-.318-1.041-.356-1.854-.036-.815-.046-1.074-.046-3.15 0-2.075.008-2.334.046-3.148.038-.814.166-1.367.355-1.855.191-.51.492-.972.88-1.353a3.74 3.74 0 0 1 1.354-.881c.488-.19 1.04-.317 1.855-.355C9.666 4.37 9.924 4.36 12 4.36zm0 3.82a3.82 3.82 0 1 0 0 7.64 3.82 3.82 0 0 0 0-7.64zm4.965-.19a.955.955 0 1 0-1.91 0 .955.955 0 0 0 1.91 0zM12 9.707a2.291 2.291 0 1 1 0 4.583 2.291 2.291 0 0 1 0-4.583z"/></svg>