<svg xmlns="http://www.w3.org/2000/svg" width="24" height="24" fill="none"><path fill="#1C2436" d="M16.84 16.842h-2.037v-3.19c0-.761-.015-1.74-1.061-1.74-1.061 0-1.223.827-1.223 1.684v3.246h-2.037v-6.56h1.956v.893h.026c.274-.515.938-1.06 1.932-1.06 2.062 0 2.444 1.359 2.444 3.126v3.601zM8.182 9.384a1.18 1.18 0 0 1-.983-1.84 1.183 1.183 0 1 1 .982 1.84zm1.02 7.458h-2.04v-6.56h2.042v6.56zM17.86 5.125H6.14c-.562 0-1.015.443-1.015.99v11.77c0 .547.454.99 1.014.99h11.717c.56 0 1.019-.443 1.019-.99V6.114c0-.547-.458-.99-1.019-.99h.003z"/></svg>